<svg xmlns="http://www.w3.org/2000/svg" xmlns:xlink="http://www.w3.org/1999/xlink" width="1600" height="1006" viewBox="0 0 1600 1006">
  <defs>
    <clipPath id="clip-background">
      <rect width="1600" height="1006"/>
    </clipPath>
  </defs>
  <g id="background" clip-path="url(#clip-background)">
    <rect width="1600" height="1006" fill="#fff"/>
    <path id="Trazado_30" data-name="Trazado 30" d="M2156.718,815.839l53.453,20.242s46.028-13.2,49.03-12.321,0,21.122,0,21.122,35.021-11.441,43.026-14.961,15.009-.88,20.012,0,18.011,6.161,18.011,6.161l111.067-6.161s129.278,4.4,134.281,6.161c1.451.51-19.6,41.811-6.77,37.234,4.009-1.43-15.768,47.017,0,56.19,11.907,6.927,34.753,2.605,50.774,0,6.234-1.013,14.176,14.894,16.248,13.54.908-.593-19.235,1.155-16.248,3.385,4.313,3.218,32.392,7.758,33.849,6.093,1.513-1.728,11.5,12.765,18.279,12.186,10.878-.93,20.462-16.707,22.341-21.664,17.432-45.986-14.61-144.808-14.61-144.808l117.571,17.6L2855.162,778l-37.723-33.179s-40.324-36.612-79.348-34.323-152.192-5.721-167.8-5.721-170.4-9.153-187.313-9.153-172.8,9.153-172.8,9.153Z" transform="translate(-1632.125 -141)" fill="#f6f6f6"/>
    <path id="Trazado_29" data-name="Trazado 29" d="M3033.969,1272.934c8.517-3.264,59.616-17.41,58.551-30.467s-115.951-34.763-103.177-40.2c5.263-2.242,32.06-45.12,44.626-63.807,18.266-27.164,24.286-22.577,44.317-25.136,34.066-4.352,33.849-59.447,23.2-81.209s67.68-76.909,80.455-83.437,32.276-35.317,32.276-40.758S3250.292,826,3253.485,826s-23.695-35.88-23.695-35.88l-15.571-3.385s57.776-72.541-3.394-72.541S2737.658,705,2737.658,705l-194.3,27.584s73.763,508.546,73.763,509.884,48.576,65.7,59.371,67.539S3033.969,1272.934,3033.969,1272.934Z" transform="translate(-2627 -158)" fill="#f6f6f6"/>
    <path id="Trazado_31" data-name="Trazado 31" d="M2763.134,1272.934c-8.517-3.264-59.616-17.41-58.551-30.467s115.951-34.763,103.177-40.2c-5.263-2.242-32.06-45.12-44.626-63.807-18.266-27.164-24.286-22.577-44.317-25.136-34.066-4.352-33.849-59.447-23.2-81.209s-35.368-44.221-48.143-50.75c-2.368-1.21-48.1-41.44-55.031-44.62-21.866-10.038-12.933-40.1-25.128-44.62-3.668-1.358,15.571,16.888,15.571,15.795,0-5.441-36.072-81.916-39.265-81.916s23.695-35.88,23.695-35.88l15.571-3.385s-57.776-72.541,3.394-72.541S3059.444,705,3059.444,705l194.3,27.584s-73.763,508.546-73.763,509.884-48.576,65.7-59.371,67.539S2763.134,1272.934,2763.134,1272.934Z" transform="translate(-1548 -166)" fill="#f6f6f6"/>
    <path id="Trazado_4" data-name="Trazado 4" d="M2015.387,1147c5.281-4.654,254.319-301.368,254.319-301.368h181.064l98.963,130.21v4.741l-8.57,3.464h14.04l126.34,162.768Z" transform="translate(-1548 -141)" fill="#fff" stroke="#707070" stroke-width="1"/>
    <path id="Trazado_6" data-name="Trazado 6" d="M1668.636,240.262s30.8-12.321,36.964-12.321,68.109,37.534,68.583,38.245,44.325,14.933,44.325,14.933,8.77,13.511,10.667,13.985,12.326-1.185,16.118,0,19.911,10.192,20.148,10.9,26.737-4.14,26.737-4.14,15.841,14.961,19.362,14.961,23.762-14.961,23.762-14.961l79.207,55.445,71.287-28.163,109.13,73.927,95.049,31.683L2319.9,450.6l26.4-7.921,92.409,88.008,44,36.083,96.809-25.522,85.368,63.366-94.169,88.008s-25.522,38.724-24.642,42.244,5.281,18.482,5.281,18.482L1480.3,764.791V227.941Z" transform="translate(-1548 -141)" fill="#464646"/>
    <path id="Trazado_5" data-name="Trazado 5" d="M1561.266,141l51.045,42.057,27.282,15.841s7.041,16.722,10.561,17.6,58.965,23.762,58.965,23.762,75.687,49.285,81.848,52.8,85.368,51.045,85.368,51.045,58.966,23.762,63.366,23.762,53.685,9.681,53.685,9.681l18.482,41.364,78.327,26.4,60.726,107.37s38.723,103.85,44.884,102.97,93.289,55.445,93.289,55.445L2403.5,731.348l108.25,7.041,13.2,11.441L1505.82,755.991l5.281-653.9Z" transform="translate(-1548 -141)" fill="#363636"/>
    <path id="Trazado_7" data-name="Trazado 7" d="M2678.341,585.228c5.4-6.254,146.7-206.4,146.7-206.4l78.3-110.793,112.5-114.367s24.3-28.592,26.1-31.272,139.5-4.467,139.5-4.467,24.3,96.5,24.3,100.071-22.5,528.948-22.5,528.948-43.2,4.468-45.9,4.468-113.4-4.468-113.4-4.468h-58.5l-35.566,1.821-96.23,4.572-115.865,2.647-143.74-2.406s-20.12,3.129-20.6,0-5.818-16.845-5.818-16.845l65.931-77.006s56.478-52.22,58.9-54.626S2678.341,585.228,2678.341,585.228Z" transform="translate(-1562.561 -141)" fill="#2e2e2e"/>
    <path id="Trazado_8" data-name="Trazado 8" d="M2451.573,796.36s26.438-5.208,26.839,0-11.617,5.608-11.617,5.608-10.015,8.813,20.83,6.81" transform="translate(-1548 -141)" fill="none" stroke="#707070" stroke-width="1"/>
    <path id="Trazado_9" data-name="Trazado 9" d="M2451.572,796.36s99.947-5.208,101.462,0-43.916,5.608-43.916,5.608-37.859,8.813,78.746,6.81" transform="translate(-1499 -141)" fill="none" stroke="#707070" stroke-width="1"/>
    <path id="Trazado_18" data-name="Trazado 18" d="M2451.572,796.36s99.947-5.208,101.462,0-43.916,5.608-43.916,5.608-37.859,8.813,78.746,6.81" transform="translate(-1916 -70)" fill="none" stroke="#707070" stroke-width="1"/>
    <path id="Trazado_3" data-name="Trazado 3" d="M2324.091,844.878l11.509-20.987-10.139-17.255s-2.552-35.372-2.552-36.466,12.581-19.874,12.581-19.874,7.111-1.459,8.752-2.917,5.105-6.382,5.105-8.023v-6.382l-5.105-2.006v-3.647l1.641-2.188V714.376l10.21-8.934,9.3,1.823,4.923,3.464,2.188,15.5-3.829,8.934-2.188,3.1,5.105,9.117,16.537,8.317,7.714,38.29-11.5,25.947,9.4,17.812-6.171,12.342s-26.929,1.262-27.63,1.262-26.508-.7-26.508-.7Z" transform="translate(-1548 -141)" fill="#fff" stroke="#707070" stroke-width="1"/>
    <path id="Trazado_19" data-name="Trazado 19" d="M2451.572,796.36s99.947-5.208,101.462,0-43.916,5.608-43.916,5.608-37.859,8.813,78.746,6.81" transform="translate(-2073 -76)" fill="none" stroke="#707070" stroke-width="1"/>
    <path id="Trazado_20" data-name="Trazado 20" d="M2451.572,796.36s99.947-5.208,101.462,0-43.916,5.608-43.916,5.608-37.859,8.813,78.746,6.81" transform="translate(-2168 -18)" fill="none" stroke="#707070" stroke-width="1"/>
    <path id="Trazado_21" data-name="Trazado 21" d="M2451.572,796.36s99.947-5.208,101.462,0-43.916,5.608-43.916,5.608-37.859,8.813,78.746,6.81" transform="translate(-2236 -138)" fill="none" stroke="#707070" stroke-width="1"/>
    <path id="Trazado_22" data-name="Trazado 22" d="M2451.572,796.36s99.947-5.208,101.462,0-43.916,5.608-43.916,5.608-37.859,8.813,78.746,6.81" transform="translate(-2313 -68)" fill="none" stroke="#707070" stroke-width="1"/>
    <path id="Trazado_23" data-name="Trazado 23" d="M2451.572,796.36s99.947-5.208,101.462,0-43.916,5.608-43.916,5.608-37.859,8.813,78.746,6.81" transform="translate(-2267 40)" fill="none" stroke="#707070" stroke-width="1"/>
    <path id="Trazado_24" data-name="Trazado 24" d="M2451.572,796.36s99.947-5.208,101.462,0-43.916,5.608-43.916,5.608-37.859,8.813,78.746,6.81" transform="translate(-2346 -10)" fill="none" stroke="#707070" stroke-width="1"/>
    <path id="Trazado_25" data-name="Trazado 25" d="M2451.572,796.36s99.947-5.208,101.462,0-43.916,5.608-43.916,5.608-37.859,8.813,78.746,6.81" transform="translate(-2285 148)" fill="none" stroke="#707070" stroke-width="1"/>
    <path id="Trazado_26" data-name="Trazado 26" d="M2451.572,796.36s99.947-5.208,101.462,0-43.916,5.608-43.916,5.608-37.859,8.813,78.746,6.81" transform="translate(-2131 87)" fill="none" stroke="#707070" stroke-width="1"/>
    <path id="Trazado_27" data-name="Trazado 27" d="M2451.572,796.36s99.947-5.208,101.462,0-43.916,5.608-43.916,5.608-37.859,8.813,78.746,6.81" transform="translate(-1984 19)" fill="none" stroke="#707070" stroke-width="1"/>
    <path id="Trazado_10" data-name="Trazado 10" d="M2451.572,796.36s99.947-5.208,101.462,0-43.916,5.608-43.916,5.608-37.859,8.813,78.746,6.81" transform="translate(-1380 -153)" fill="none" stroke="#707070" stroke-width="1"/>
    <path id="Trazado_11" data-name="Trazado 11" d="M2451.572,796.36s99.947-5.208,101.462,0-43.916,5.608-43.916,5.608-37.859,8.813,78.746,6.81" transform="translate(-1431 -68)" fill="none" stroke="#707070" stroke-width="1"/>
    <path id="Trazado_12" data-name="Trazado 12" d="M2451.572,796.36s99.947-5.208,101.462,0-43.916,5.608-43.916,5.608-37.859,8.813,78.746,6.81" transform="translate(-1342 -91)" fill="none" stroke="#707070" stroke-width="1"/>
    <path id="Trazado_15" data-name="Trazado 15" d="M2451.572,796.36s99.947-5.208,101.462,0-43.916,5.608-43.916,5.608-37.859,8.813,78.746,6.81" transform="translate(-1219 -118)" fill="none" stroke="#707070" stroke-width="1"/>
    <path id="Trazado_16" data-name="Trazado 16" d="M2451.572,796.36s99.947-5.208,101.462,0-43.916,5.608-43.916,5.608-37.859,8.813,78.746,6.81" transform="translate(-1168 -11)" fill="none" stroke="#707070" stroke-width="1"/>
    <path id="Trazado_17" data-name="Trazado 17" d="M2451.572,796.36s99.947-5.208,101.462,0-43.916,5.608-43.916,5.608-37.859,8.813,78.746,6.81" transform="translate(-1100 -76)" fill="none" stroke="#707070" stroke-width="1"/>
    <path id="Trazado_13" data-name="Trazado 13" d="M2451.572,796.36s99.947-5.208,101.462,0-43.916,5.608-43.916,5.608-37.859,8.813,78.746,6.81" transform="translate(-1342 25)" fill="none" stroke="#707070" stroke-width="1"/>
    <path id="Trazado_14" data-name="Trazado 14" d="M2451.572,796.36s99.947-5.208,101.462,0-43.916,5.608-43.916,5.608-37.859,8.813,78.746,6.81" transform="translate(-1291 -26)" fill="none" stroke="#707070" stroke-width="1"/>
    <path id="Trazado_28" data-name="Trazado 28" d="M1538.385,447.082s37.247-40.967,190.1,24.642,122.184,114.942,235.862,168.1S2151.8,773.593,2151.8,773.593l-631.019,11.441Z" transform="translate(-1548 -141)" fill="#2e2e2e"/>
    <path id="Trazado_32" data-name="Trazado 32" d="M2451.573,856.13c-8.685,2.6-173.766,0-173.766,0" transform="translate(-1548 -141)" fill="none" stroke="#707070" stroke-width="1"/>
    <path id="Trazado_33" data-name="Trazado 33" d="M2451.573,856.13c-8.685,2.6-173.766,0-173.766,0" transform="translate(-1548 -132)" fill="none" stroke="#707070" stroke-width="1"/>
    <path id="Trazado_34" data-name="Trazado 34" d="M2479.737,856.13c-10.092,3.026-201.93,0-201.93,0" transform="translate(-1563 -118.094)" fill="none" stroke="#707070" stroke-width="1"/>
    <path id="Trazado_35" data-name="Trazado 35" d="M2503.6,856.13c-11.285,3.384-225.792,0-225.792,0" transform="translate(-1582 -104.173)" fill="none" stroke="#707070" stroke-width="1"/>
    <path id="Trazado_36" data-name="Trazado 36" d="M2511.571,856.13c-11.684,3.5-233.764,0-233.764,0" transform="translate(-1587 -90.2)" fill="none" stroke="#707070" stroke-width="1"/>
    <path id="Trazado_37" data-name="Trazado 37" d="M2523.424,856.13c-12.276,3.68-245.617,0-245.617,0" transform="translate(-1590 -71.239)" fill="none" stroke="#707070" stroke-width="1"/>
    <path id="Trazado_38" data-name="Trazado 38" d="M2551.088,856.13c-13.659,4.1-273.281,0-273.281,0" transform="translate(-1601 -49.331)" fill="none" stroke="#707070" stroke-width="1"/>
    <path id="Trazado_39" data-name="Trazado 39" d="M2586.42,856.13c-15.425,4.624-308.614,0-308.614,0" transform="translate(-1628 -27.449)" fill="none" stroke="#707070" stroke-width="1"/>
    <path id="Trazado_40" data-name="Trazado 40" d="M2556.42,856.13c-13.925,4.175-278.613,0-278.613,0" transform="translate(-1598 -1.349)" fill="none" stroke="#707070" stroke-width="1"/>
    <path id="Trazado_41" data-name="Trazado 41" d="M2663.169,856.13c-19.26,5.775-385.362,0-385.362,0" transform="translate(-1659.443 26.295)" fill="none" stroke="#707070" stroke-width="1"/>
    <path id="Trazado_42" data-name="Trazado 42" d="M2737.032,856.13c-22.952,6.881-459.226,0-459.226,0" transform="translate(-1694.942 58.049)" fill="none" stroke="#707070" stroke-width="1"/>
    <path id="Trazado_43" data-name="Trazado 43" d="M2791.776,856.13c-25.689,7.7-513.969,0-513.969,0" transform="translate(-1725.924 91.867)" fill="none" stroke="#707070" stroke-width="1"/>
    <path id="Trazado_44" data-name="Trazado 44" d="M2900.623,856.13c-31.128,9.333-622.816,0-622.816,0" transform="translate(-1791.05 125.505)" fill="none" stroke="#707070" stroke-width="1"/>
    <text id="AWESOME" transform="translate(606.5 199.5)" fill="#fff" stroke="#000" stroke-width="1" font-size="139" font-family="SegoeUI, Segoe UI"><tspan x="0" y="0">AWESOME</tspan></text>
    <path id="Trazado_45" data-name="Trazado 45" d="M2775.347,741.747v-7.879h23.462v7.879Z" transform="translate(-1498.569 -126.271)" fill="#f6f6f6"/>
    <path id="Trazado_46" data-name="Trazado 46" d="M2775.347,741.747v-7.879h23.462v7.879Z" transform="translate(-1527.569 -124.271)" fill="#f6f6f6"/>
    <path id="Trazado_47" data-name="Trazado 47" d="M2775.347,741.747v-7.879h23.462v7.879Z" transform="translate(-1556.569 -124.271)" fill="#f6f6f6"/>
  </g>
</svg>
